<svg fill="currentColor" width="30px" height="30px" viewBox="0 0 32 32" xmlns="http://www.w3.org/2000/svg">
  <path d="M31.513 10.131H28.2v11.738h-2.206V10.131h-3.819V8.287h9.338v1.844zM23.025 21.869H15.35V8.287h7.175v1.844h-4.969v3.869h4.575v1.863h-4.575v4.044h5.262v1.862zM12.544 21.869H9.888L4.975 13.569c-.131-.219-.237-.394-.35-.581h-.056c.044.281.069.894.069 1.825v7.056H2.712V8.287h2.569l4.838 8.125c.219.369.363.631.444.775h.044c-.056-.338-.081-.919-.081-1.738V8.287h1.919v13.581z"/>
  <circle cx="27.513" cy="26.5" r="1.5"/>
</svg>
