<svg fill="currentColor" width="30px" height="30px" viewBox="0 0 32 32" xmlns="http://www.w3.org/2000/svg">
  <path d="M22.839 0c-1.245 0.011-2.479 0.188-3.677 0.536l-0.083 0.027c-0.751-0.131-1.516-0.203-2.276-0.219-1.573-0.027-2.923 0.353-4.011 0.989-1.073-0.369-3.297-1.016-5.641-0.885-1.629 0.088-3.411 0.583-4.735 1.979-1.312 1.391-2.009 3.547-1.864 6.485 0.041 0.807 0.271 2.124 0.656 3.837 0.38 1.709 0.917 3.709 1.589 5.537 0.672 1.823 1.405 3.463 2.552 4.577 0.572 0.557 1.364 1.032 2.296 0.991 0.652-0.027 1.24-0.313 1.751-0.735 0.249 0.328 0.516 0.468 0.755 0.599 0.308 0.167 0.599 0.281 0.907 0.355 0.552 0.14 1.495 0.323 2.599 0.135 0.375-0.063 0.771-0.187 1.167-0.359 0.016 0.437 0.032 0.869 0.047 1.307 0.057 1.38 0.095 2.656 0.505 3.776 0.068 0.183 0.251 1.12 0.969 1.953 0.724 0.833 2.129 1.349 3.739 1.005 1.131-0.24 2.573-0.677 3.532-2.041 0.948-1.344 1.375-3.276 1.459-6.412 0.020-0.172 0.047-0.312 0.072-0.448l0.224 0.021h0.027c1.208 0.052 2.521-0.12 3.62-0.631 0.968-0.448 1.703-0.901 2.239-1.708 0.131-0.199 0.281-0.443 0.319-0.86 0.041-0.411-0.199-1.063-0.595-1.364-0.791-0.604-1.291-0.375-1.828-0.26-0.525 0.115-1.063 0.176-1.599 0.192 1.541-2.593 2.645-5.353 3.276-7.792 0.375-1.443 0.584-2.771 0.599-3.932 0.021-1.161-0.077-2.187-0.771-3.077-2.177-2.776-5.235-3.548-7.599-3.573-0.073 0-0.145 0-0.219 0z"/>
</svg>
